<svg id="svg" version="1.1" xmlns="http://www.w3.org/2000/svg" xmlns:xlink="http://www.w3.org/1999/xlink" width="400" height="321.89500640204864" viewBox="0, 0, 400,321.89500640204864"><g id="svgg"><path id="path0" d="M271.703 82.126 C 264.852 82.365,254.488 83.503,251.088 84.389 C 248.020 85.189,246.409 86.656,243.647 91.165 C 242.827 92.503,241.406 94.635,240.487 95.903 C 235.468 102.833,234.802 104.594,236.369 106.794 C 237.864 108.893,239.432 108.979,242.523 107.133 C 246.705 104.635,252.191 102.628,257.195 101.768 C 261.745 100.985,277.029 101.047,283.739 101.875 L 285.147 102.049 280.571 105.378 C 250.194 127.475,225.441 165.689,233.609 177.877 C 237.382 183.508,246.823 180.590,260.028 169.713 L 260.773 169.100 259.677 167.649 C 259.074 166.850,258.516 166.197,258.437 166.197 C 258.357 166.197,257.619 166.386,256.796 166.617 C 254.907 167.147,254.894 167.130,255.271 164.526 C 256.050 159.134,262.903 143.818,266.304 139.866 C 267.142 138.892,270.161 135.170,273.012 131.596 C 281.281 121.228,287.765 114.286,297.022 105.889 C 301.818 101.539,302.543 100.653,302.962 98.637 C 303.521 95.947,302.514 90.227,300.637 85.425 L 299.613 82.806 291.740 82.369 C 284.709 81.979,278.189 81.900,271.703 82.126 M179.257 137.260 L 179.257 175.928 188.210 175.928 L 197.163 175.928 197.429 174.904 C 197.576 174.341,197.816 173.390,197.964 172.791 C 198.112 172.193,198.285 171.549,198.349 171.361 C 198.424 171.137,199.055 171.559,200.173 172.583 C 206.603 178.476,216.973 178.129,221.929 171.856 C 224.388 168.743,224.580 166.853,224.577 145.839 C 224.573 128.305,224.497 126.839,223.469 124.594 C 220.105 117.246,207.028 115.885,200.170 122.169 L 198.464 123.733 198.464 111.162 L 198.464 98.592 188.860 98.592 L 179.257 98.592 179.257 137.260 M57.362 137.772 L 57.362 176.440 66.069 176.440 L 74.776 176.440 74.776 151.488 C 74.776 137.764,74.866 126.479,74.976 126.411 C 75.086 126.343,75.717 130.053,76.380 134.655 C 77.042 139.257,78.452 149.011,79.513 156.331 C 80.574 163.652,81.616 170.854,81.829 172.336 C 82.042 173.819,82.280 175.349,82.358 175.736 L 82.499 176.440 88.717 176.440 L 94.934 176.440 95.209 174.072 C 95.359 172.769,96.130 166.921,96.920 161.076 C 99.721 140.367,100.131 137.321,100.958 131.114 L 101.793 124.840 101.948 140.461 C 102.033 149.052,102.119 160.663,102.140 166.261 L 102.177 176.440 110.884 176.440 L 119.592 176.440 119.527 137.836 L 119.462 99.232 106.413 99.232 L 93.363 99.232 92.521 105.762 C 92.058 109.353,91.096 116.844,90.385 122.407 C 88.854 134.376,88.730 135.201,88.534 134.699 C 88.389 134.328,86.819 123.669,85.272 112.548 C 84.349 105.914,83.533 100.444,83.353 99.680 L 83.217 99.104 70.290 99.104 L 57.362 99.104 57.362 137.772 M126.761 137.731 L 126.761 176.440 140.254 176.440 C 161.386 176.440,164.448 175.998,168.305 172.391 C 171.907 169.021,172.340 165.530,172.336 139.821 C 172.333 111.731,171.947 108.782,167.721 104.489 C 163.606 100.309,159.029 99.465,138.988 99.189 L 126.761 99.021 126.761 137.731 M30.730 138.412 L 30.730 176.953 40.717 176.953 L 50.704 176.953 50.704 138.412 L 50.704 99.872 40.717 99.872 L 30.730 99.872 30.730 138.412 M151.297 113.114 C 153.123 114.474,153.009 112.872,153.009 137.260 C 153.009 161.815,153.043 161.342,151.216 162.395 C 150.412 162.859,147.330 163.462,146.953 163.229 C 146.833 163.155,146.735 151.677,146.735 137.723 L 146.735 112.353 148.672 112.477 C 150.067 112.566,150.803 112.745,151.297 113.114 M315.237 136.876 L 315.237 146.991 305.122 146.991 L 295.006 146.991 295.006 151.216 L 295.006 155.442 305.122 155.442 L 315.237 155.442 315.237 165.557 L 315.237 175.672 319.590 175.672 L 323.944 175.672 323.944 165.557 L 323.944 155.442 334.059 155.442 L 344.174 155.442 344.174 151.216 L 344.174 146.991 334.059 146.991 L 323.944 146.991 323.944 136.876 L 323.944 126.761 319.590 126.761 L 315.237 126.761 315.237 136.876 M203.493 129.814 C 205.289 130.630,205.252 130.245,205.235 147.631 C 205.225 157.110,205.122 163.284,204.965 163.747 C 204.275 165.781,200.380 166.404,199.288 164.656 C 198.486 163.371,198.025 136.626,198.728 132.138 C 199.153 129.420,200.827 128.604,203.493 129.814 " stroke="none" fill="#040404" fill-rule="evenodd"></path><path id="path1" d="M7.440 74.670 C 4.115 76.181,1.750 78.821,0.485 82.434 C 0.015 83.776,0.000 85.498,0.000 137.801 L 0.000 191.782 0.620 193.491 C 2.018 197.342,5.062 200.302,8.749 201.397 C 11.104 202.097,337.851 201.985,340.775 201.284 C 348.549 199.420,354.606 193.363,356.470 185.589 C 357.264 182.277,357.264 93.407,356.469 90.246 C 354.638 82.953,349.245 77.276,341.741 74.741 L 339.949 74.136 174.392 74.086 L 8.835 74.036 7.440 74.670 M292.061 82.211 C 299.569 82.658,299.574 82.659,300.029 83.538 C 301.674 86.720,303.201 93.029,303.201 96.646 C 303.201 100.326,302.931 100.749,297.331 105.838 C 287.847 114.454,281.762 120.924,274.037 130.602 C 271.283 134.052,268.072 138.009,266.901 139.393 C 261.812 145.412,253.045 166.709,255.657 166.709 C 255.846 166.709,256.566 166.538,257.258 166.328 C 257.949 166.118,258.532 165.945,258.554 165.944 C 258.575 165.942,259.124 166.656,259.773 167.530 L 260.953 169.118 260.246 169.707 C 243.360 183.768,231.866 184.630,231.926 171.831 C 232.004 155.031,255.244 123.280,280.831 105.016 C 285.385 101.765,285.487 102.067,279.700 101.674 C 261.891 100.465,251.457 102.028,242.818 107.201 C 239.908 108.943,239.051 109.070,237.432 107.998 C 234.409 105.997,234.876 103.314,239.293 97.311 C 240.485 95.691,242.242 93.104,243.199 91.561 C 247.003 85.424,248.056 84.652,254.033 83.623 C 263.539 81.986,278.794 81.419,292.061 82.211 M198.720 110.790 L 198.720 123.246 199.956 122.089 C 202.848 119.384,205.657 118.315,210.371 118.127 C 218.682 117.796,223.783 121.385,224.610 128.147 C 225.089 132.064,224.763 164.905,224.222 167.207 C 221.806 177.488,208.223 180.474,199.859 172.564 L 198.558 171.334 198.101 173.183 C 197.849 174.200,197.590 175.234,197.524 175.480 C 197.413 175.896,196.750 175.928,188.203 175.928 L 179.001 175.928 179.001 137.132 L 179.001 98.335 188.860 98.335 L 198.720 98.335 198.720 110.790 M83.484 99.168 C 83.485 99.203,83.602 99.923,83.745 100.768 C 83.887 101.613,84.749 107.490,85.661 113.828 C 86.572 120.166,87.550 126.965,87.834 128.937 C 88.649 134.598,88.620 134.605,89.388 128.553 C 90.228 121.931,90.956 116.271,91.676 110.755 C 91.971 108.502,92.380 105.275,92.587 103.585 C 92.794 101.895,93.029 100.195,93.109 99.808 L 93.255 99.104 106.422 99.104 L 119.590 99.104 119.590 137.900 L 119.590 176.697 110.755 176.697 L 101.921 176.697 101.895 151.665 C 101.866 123.812,101.986 124.838,100.270 137.772 C 99.303 145.062,98.610 150.207,97.943 155.058 C 97.492 158.334,96.420 166.362,95.891 170.423 C 95.689 171.972,95.397 174.017,95.242 174.968 L 94.960 176.697 88.581 176.697 C 83.650 176.697,82.202 176.624,82.201 176.376 C 82.200 176.200,82.025 174.904,81.813 173.496 C 81.236 169.676,79.626 158.628,79.369 156.722 C 79.245 155.807,78.678 151.889,78.108 148.015 C 77.538 144.142,76.642 137.977,76.116 134.315 L 75.160 127.657 75.095 152.177 L 75.029 176.697 66.068 176.697 L 57.106 176.697 57.106 137.900 L 57.106 99.104 70.294 99.104 C 77.548 99.104,83.483 99.133,83.484 99.168 M157.234 99.729 C 166.125 101.166,170.693 105.207,171.872 112.678 C 172.444 116.304,172.361 163.010,171.777 165.922 C 170.714 171.225,167.754 174.324,162.457 175.679 C 159.455 176.447,153.858 176.695,139.501 176.696 L 126.504 176.697 126.504 137.873 L 126.504 99.050 140.525 99.173 C 152.046 99.273,155.025 99.372,157.234 99.729 M50.704 138.412 L 50.704 177.209 40.589 177.209 L 30.474 177.209 30.474 138.412 L 30.474 99.616 40.589 99.616 L 50.704 99.616 50.704 138.412 M146.991 137.786 L 146.991 163.156 148.207 162.996 C 151.546 162.559,152.230 161.857,152.645 158.444 C 153.200 153.884,152.830 115.124,152.224 114.295 C 151.527 113.343,150.271 112.767,148.464 112.574 L 146.991 112.416 146.991 137.786 M323.944 136.748 L 323.944 146.991 334.187 146.991 L 344.430 146.991 344.430 151.344 L 344.430 155.698 334.187 155.698 L 323.944 155.698 323.944 165.813 L 323.944 175.928 319.590 175.928 L 315.237 175.928 315.237 165.813 L 315.237 155.698 305.122 155.698 L 295.006 155.698 295.006 151.344 L 295.006 146.991 305.122 146.991 L 315.237 146.991 315.237 136.748 L 315.237 126.504 319.590 126.504 L 323.944 126.504 323.944 136.748 M199.822 129.961 C 198.815 130.667,198.720 132.172,198.720 147.375 C 198.720 165.643,198.715 165.620,202.074 165.378 C 204.449 165.206,204.764 164.736,204.988 161.028 C 205.289 156.058,205.033 131.862,204.671 131.038 C 204.104 129.745,201.087 129.076,199.822 129.961 " stroke="none" fill="#f4c404" fill-rule="evenodd"></path><path id="path2" d="M179.121 98.652 C 179.053 98.830,179.028 116.319,179.064 137.516 L 179.131 176.056 179.194 137.324 L 179.257 98.592 188.860 98.592 L 198.464 98.592 198.464 111.012 C 198.464 117.843,198.550 123.432,198.656 123.432 C 198.761 123.432,198.790 117.814,198.720 110.948 L 198.592 98.464 188.918 98.396 C 181.315 98.344,179.217 98.399,179.121 98.652 M126.631 137.772 L 126.633 176.569 139.309 176.572 L 151.985 176.576 139.373 176.506 L 126.762 176.436 126.696 137.706 L 126.630 98.976 126.631 137.772 M57.233 137.964 L 57.234 176.569 66.005 176.574 L 74.776 176.579 66.070 176.506 L 57.364 176.434 57.298 137.897 L 57.232 99.360 57.233 137.964 M271.258 101.336 C 271.648 101.395,272.224 101.393,272.539 101.333 C 272.854 101.272,272.535 101.224,271.831 101.226 C 271.127 101.228,270.869 101.277,271.258 101.336 M288.979 113.508 L 287.708 114.853 289.052 113.582 C 289.792 112.883,290.397 112.278,290.397 112.238 C 290.397 112.046,290.160 112.259,288.979 113.508 M264.901 118.118 L 264.149 118.950 264.981 118.198 C 265.757 117.497,265.931 117.286,265.733 117.286 C 265.689 117.286,265.314 117.660,264.901 118.118 M152.960 119.974 C 152.962 120.819,153.010 121.134,153.067 120.674 C 153.124 120.214,153.122 119.522,153.064 119.138 C 153.005 118.753,152.959 119.129,152.960 119.974 M260.035 122.983 L 259.283 123.816 260.115 123.063 C 260.573 122.650,260.948 122.275,260.948 122.231 C 260.948 122.033,260.736 122.208,260.035 122.983 M224.648 132.266 C 224.651 132.830,224.704 133.030,224.765 132.711 C 224.826 132.393,224.824 131.932,224.760 131.687 C 224.696 131.442,224.646 131.703,224.648 132.266 M205.240 146.607 C 205.240 153.227,205.273 155.971,205.313 152.706 C 205.354 149.442,205.354 144.025,205.314 140.671 C 205.273 137.316,205.240 139.987,205.240 146.607 M198.582 147.375 C 198.582 154.277,198.615 157.063,198.655 153.567 C 198.696 150.072,198.696 144.425,198.655 141.019 C 198.615 137.614,198.582 140.474,198.582 147.375 M152.960 153.777 C 152.962 154.622,153.010 154.937,153.067 154.477 C 153.124 154.017,153.122 153.325,153.064 152.940 C 153.005 152.556,152.959 152.932,152.960 153.777 M85.467 176.632 C 87.193 176.676,90.016 176.676,91.741 176.632 C 93.467 176.587,92.055 176.551,88.604 176.551 C 85.154 176.551,83.742 176.587,85.467 176.632 M106.466 176.632 C 108.896 176.674,112.871 176.674,115.301 176.632 C 117.730 176.590,115.743 176.556,110.883 176.556 C 106.024 176.556,104.036 176.590,106.466 176.632 " stroke="none" fill="#9b7c04" fill-rule="evenodd"></path><path id="path3" d="M272.151 82.127 C 272.468 82.188,272.987 82.188,273.303 82.127 C 273.620 82.066,273.361 82.016,272.727 82.016 C 272.093 82.016,271.834 82.066,272.151 82.127 M286.876 82.123 C 287.122 82.187,287.526 82.187,287.772 82.123 C 288.019 82.058,287.817 82.006,287.324 82.006 C 286.831 82.006,286.629 82.058,286.876 82.123 M291.485 82.379 C 291.732 82.443,292.135 82.443,292.382 82.379 C 292.628 82.314,292.426 82.262,291.933 82.262 C 291.440 82.262,291.239 82.314,291.485 82.379 M145.134 99.291 C 145.733 99.345,146.713 99.345,147.311 99.291 C 147.910 99.237,147.420 99.193,146.223 99.193 C 145.026 99.193,144.536 99.237,145.134 99.291 M152.433 99.536 C 152.679 99.601,153.083 99.601,153.329 99.536 C 153.576 99.472,153.374 99.419,152.881 99.419 C 152.388 99.419,152.186 99.472,152.433 99.536 M30.537 138.348 L 30.602 177.081 40.461 177.085 L 50.320 177.090 40.525 177.018 L 30.730 176.947 30.730 138.412 L 30.730 99.878 40.781 99.808 L 50.832 99.738 40.652 99.677 L 30.472 99.616 30.537 138.348 M262.164 101.333 C 262.481 101.394,262.999 101.394,263.316 101.333 C 263.633 101.272,263.374 101.222,262.740 101.222 C 262.106 101.222,261.847 101.272,262.164 101.333 M273.431 101.333 C 273.748 101.394,274.267 101.394,274.584 101.333 C 274.901 101.272,274.641 101.222,274.008 101.222 C 273.374 101.222,273.115 101.272,273.431 101.333 M300.496 102.753 L 299.744 103.585 300.576 102.833 C 301.034 102.419,301.408 102.045,301.408 102.001 C 301.408 101.803,301.197 101.977,300.496 102.753 M291.281 111.204 L 290.269 112.292 291.357 111.280 C 292.369 110.338,292.563 110.115,292.370 110.115 C 292.328 110.115,291.838 110.605,291.281 111.204 M286.291 116.197 L 284.891 117.670 286.364 116.270 C 287.173 115.500,287.836 114.838,287.836 114.797 C 287.836 114.607,287.591 114.829,286.291 116.197 M152.951 117.542 C 152.951 118.175,153.001 118.435,153.062 118.118 C 153.123 117.801,153.123 117.282,153.062 116.965 C 153.001 116.649,152.951 116.908,152.951 117.542 M210.307 118.240 C 210.835 118.296,211.700 118.296,212.228 118.240 C 212.756 118.185,212.324 118.140,211.268 118.140 C 210.211 118.140,209.779 118.185,210.307 118.240 M172.175 120.743 C 172.176 121.869,172.221 122.298,172.275 121.696 C 172.329 121.094,172.328 120.172,172.273 119.648 C 172.218 119.123,172.174 119.616,172.175 120.743 M262.477 120.551 L 260.819 122.279 262.548 120.622 C 263.499 119.711,264.277 118.933,264.277 118.893 C 264.277 118.705,264.016 118.945,262.477 120.551 M74.947 126.419 C 74.853 126.513,74.804 137.835,74.837 151.579 L 74.899 176.569 75.030 151.472 C 75.173 123.820,75.181 126.185,74.947 126.419 M317.350 126.695 C 318.582 126.742,320.599 126.742,321.831 126.695 C 323.063 126.648,322.055 126.610,319.590 126.610 C 317.125 126.610,316.117 126.648,317.350 126.695 M198.528 134.059 C 198.531 134.622,198.583 134.823,198.645 134.504 C 198.706 134.186,198.704 133.725,198.639 133.480 C 198.575 133.235,198.525 133.496,198.528 134.059 M205.181 133.931 C 205.181 134.424,205.234 134.625,205.298 134.379 C 205.363 134.133,205.363 133.729,205.298 133.483 C 205.234 133.236,205.181 133.438,205.181 133.931 M224.703 146.607 C 224.703 154.072,224.736 157.089,224.776 153.311 C 224.816 149.534,224.816 143.426,224.776 139.739 C 224.736 136.051,224.703 139.142,224.703 146.607 M344.174 151.213 L 344.174 155.436 333.995 155.506 L 323.816 155.576 334.123 155.637 L 344.430 155.698 344.430 151.344 C 344.430 148.950,344.373 146.991,344.302 146.991 C 344.232 146.991,344.174 148.891,344.174 151.213 M102.039 164.533 C 102.039 171.152,102.072 173.897,102.112 170.632 C 102.153 167.367,102.153 161.951,102.112 158.596 C 102.072 155.242,102.039 157.913,102.039 164.533 M152.951 156.210 C 152.951 156.844,153.001 157.103,153.062 156.786 C 153.123 156.469,153.123 155.951,153.062 155.634 C 153.001 155.317,152.951 155.576,152.951 156.210 M299.919 155.633 C 302.691 155.675,307.301 155.675,310.162 155.634 C 313.024 155.592,310.755 155.559,305.122 155.558 C 299.488 155.558,297.147 155.592,299.919 155.633 M172.169 158.259 C 172.169 159.174,172.216 159.549,172.272 159.091 C 172.329 158.633,172.329 157.884,172.272 157.426 C 172.216 156.969,172.169 157.343,172.169 158.259 M205.195 159.667 C 205.197 160.371,205.247 160.629,205.305 160.240 C 205.364 159.850,205.363 159.274,205.302 158.959 C 205.241 158.644,205.193 158.963,205.195 159.667 M198.523 160.563 C 198.523 161.056,198.576 161.258,198.640 161.012 C 198.704 160.765,198.704 160.362,198.640 160.115 C 198.576 159.869,198.523 160.070,198.523 160.563 M168.358 172.407 L 167.606 173.239 168.438 172.487 C 168.896 172.074,169.270 171.699,169.270 171.655 C 169.270 171.457,169.059 171.631,168.358 172.407 M155.506 176.361 C 155.752 176.425,156.156 176.425,156.402 176.361 C 156.649 176.296,156.447 176.244,155.954 176.244 C 155.461 176.244,155.259 176.296,155.506 176.361 M210.186 176.884 C 210.788 176.938,211.710 176.938,212.235 176.883 C 212.759 176.828,212.266 176.783,211.140 176.784 C 210.013 176.785,209.584 176.830,210.186 176.884 " stroke="none" fill="#7c6404" fill-rule="evenodd"></path><path id="path4" d="M279.449 81.879 C 280.259 81.930,281.585 81.930,282.394 81.879 C 283.204 81.829,282.542 81.787,280.922 81.787 C 279.302 81.787,278.640 81.829,279.449 81.879 M246.719 86.620 L 245.967 87.452 246.799 86.700 C 247.257 86.286,247.631 85.912,247.631 85.868 C 247.631 85.670,247.420 85.844,246.719 86.620 M149.872 99.280 C 150.118 99.345,150.522 99.345,150.768 99.280 C 151.015 99.216,150.813 99.163,150.320 99.163 C 149.827 99.163,149.625 99.216,149.872 99.280 M266.271 101.342 C 267.157 101.392,268.540 101.392,269.344 101.341 C 270.149 101.291,269.424 101.250,267.734 101.250 C 266.044 101.251,265.385 101.292,266.271 101.342 M146.858 137.772 C 146.858 151.786,146.889 157.519,146.927 150.512 C 146.965 143.505,146.965 132.039,146.927 125.032 C 146.889 118.025,146.858 123.758,146.858 137.772 M172.146 116.773 C 172.146 117.266,172.199 117.468,172.264 117.222 C 172.328 116.975,172.328 116.572,172.264 116.325 C 172.199 116.079,172.146 116.280,172.146 116.773 M153.001 136.876 C 153.001 145.467,153.033 148.945,153.073 144.604 C 153.112 140.263,153.112 133.233,153.073 128.983 C 153.033 124.732,153.001 128.284,153.001 136.876 M224.657 130.218 C 224.659 130.922,224.709 131.180,224.768 130.790 C 224.826 130.401,224.825 129.825,224.764 129.510 C 224.703 129.195,224.655 129.513,224.657 130.218 M224.648 162.228 C 224.651 162.791,224.704 162.992,224.765 162.673 C 224.826 162.355,224.824 161.894,224.760 161.649 C 224.696 161.404,224.646 161.665,224.648 162.228 M317.350 175.863 C 318.582 175.910,320.599 175.910,321.831 175.863 C 323.063 175.816,322.055 175.778,319.590 175.778 C 317.125 175.778,316.117 175.816,317.350 175.863 M152.561 176.621 C 152.878 176.682,153.396 176.682,153.713 176.621 C 154.030 176.560,153.771 176.510,153.137 176.510 C 152.503 176.510,152.244 176.560,152.561 176.621 " stroke="none" fill="#c6a004" fill-rule="evenodd"></path></g></svg>